<?xml version="1.0" encoding="UTF-8" standalone="no"?>
<!-- Created with Inkscape (http://www.inkscape.org/) -->

<svg
   xmlns:dc="http://purl.org/dc/elements/1.1/"
   xmlns:cc="http://creativecommons.org/ns#"
   xmlns:rdf="http://www.w3.org/1999/02/22-rdf-syntax-ns#"
   xmlns:svg="http://www.w3.org/2000/svg"
   xmlns="http://www.w3.org/2000/svg"
   xmlns:sodipodi="http://sodipodi.sourceforge.net/DTD/sodipodi-0.dtd"
   xmlns:inkscape="http://www.inkscape.org/namespaces/inkscape"
   id="svg3190"
   version="1.1"
   inkscape:version="0.48.5 r10040"
   width="189.375"
   height="77.1875"
   xml:space="preserve"
   sodipodi:docname="kolizje01.pdf"><metadata
     id="metadata3196"><rdf:RDF><cc:Work
         rdf:about=""><dc:format>image/svg+xml</dc:format><dc:type
           rdf:resource="http://purl.org/dc/dcmitype/StillImage" /><dc:title></dc:title></cc:Work></rdf:RDF></metadata><defs
     id="defs3194" /><sodipodi:namedview
     pagecolor="#ffffff"
     bordercolor="#666666"
     borderopacity="1"
     objecttolerance="10"
     gridtolerance="10"
     guidetolerance="10"
     inkscape:pageopacity="0"
     inkscape:pageshadow="2"
     inkscape:window-width="1920"
     inkscape:window-height="1018"
     id="namedview3192"
     showgrid="false"
     inkscape:zoom="3.8759076"
     inkscape:cx="20.504231"
     inkscape:cy="22.937627"
     inkscape:window-x="-8"
     inkscape:window-y="-8"
     inkscape:window-maximized="1"
     inkscape:current-layer="g3198" /><g
     id="g3198"
     inkscape:groupmode="layer"
     inkscape:label="kolizje01"
     transform="matrix(1.25,0,0,-1.25,0,77.1875)"><g
       id="g3200"><g
         id="g3202"
         transform="matrix(1,0,0,-1,0,61.75)"><path
           d="M 0.906,0.754 24.914,11.082 48.855,1.863 25.121,36.855 0.906,0.754 z"
           style="fill:none;stroke:#000000;stroke-opacity:1;stroke-width:0.658927;stroke-linecap:butt;stroke-linejoin:miter;stroke-miterlimit:4;stroke-dasharray:none"
           id="path3204" /></g><g
         id="g3206"
         transform="matrix(1,0,0,-1,0,61.75)"><path
           d="M 25.234,11.059 25.098,37.121"
           style="fill:none;stroke:#000000;stroke-opacity:1;stroke-width:0.658927;stroke-linecap:butt;stroke-linejoin:miter;stroke-miterlimit:4;stroke-dasharray:none"
           id="path3208" /></g><g
         id="g3210"
         transform="matrix(1,0,0,-1,0,61.75)"><path
           d="M 39.609,16.957 C 39.609,24.16 33.258,30 25.422,30 17.59,30 11.238,24.16 11.238,16.957 c 0,-7.203 6.352,-13.039 14.184,-13.039 7.836,0 14.187,5.836 14.187,13.039 z"
           style="fill:none;stroke:#000000;stroke-opacity:1;stroke-width:0.8;stroke-linecap:butt;stroke-linejoin:miter;stroke-miterlimit:4;stroke-dasharray:0.8,1.6;stroke-dashoffset:0"
           id="path3212" /></g><g
         id="g3214"
         transform="matrix(1,0,0,-1,0,61.75)"><path
           d="m 117.953,39.949 15.336,-7.851 0,15.742 -6.84,2.949 -11.156,10.59 2.66,-21.43 z"
           style="fill:none;stroke:#000000;stroke-opacity:1;stroke-width:0.287872;stroke-linecap:butt;stroke-linejoin:miter;stroke-miterlimit:4;stroke-dasharray:none"
           id="path3216" /></g><g
         id="g3218"
         transform="matrix(1,0,0,-1,0,61.75)"><path
           d="m 119.934,44.07 14.242,3.821"
           style="fill:none;stroke:#ff0000;stroke-opacity:1;stroke-width:0.8;stroke-linecap:butt;stroke-linejoin:miter;stroke-miterlimit:4;stroke-dasharray:none"
           id="path3220" /></g><g
         id="g3222"
         transform="matrix(1,0,0,-1,0,61.75)"><path
           d="m 117.855,39.953 8.481,10.746"
           style="fill:none;stroke:#000000;stroke-opacity:1;stroke-width:0.287872;stroke-linecap:butt;stroke-linejoin:miter;stroke-miterlimit:4;stroke-dasharray:none"
           id="path3224" /></g><g
         id="g3226"
         transform="matrix(1,0,0,-1,0,61.75)"><path
           d="m 148.656,39.938 -15.336,-7.856 0,15.742 6.84,2.953 11.156,10.59 -2.66,-21.429 z"
           style="fill:none;stroke:#000000;stroke-opacity:1;stroke-width:0.287872;stroke-linecap:butt;stroke-linejoin:miter;stroke-miterlimit:4;stroke-dasharray:none"
           id="path3228" /></g><g
         id="g3230"
         transform="matrix(1,0,0,-1,0,61.75)"><path
           d="m 148.613,39.953 -8.48,10.746"
           style="fill:none;stroke:#000000;stroke-opacity:1;stroke-width:0.287872;stroke-linecap:butt;stroke-linejoin:miter;stroke-miterlimit:4;stroke-dasharray:none"
           id="path3232" /></g><g
         id="g3234"
         transform="matrix(1,0,0,-1,0,61.75)"><path
           d="m 146.324,47.305 c 0,6.726 -5.933,12.179 -13.254,12.179 -7.316,0 -13.25,-5.453 -13.25,-12.179 0,-6.731 5.934,-12.184 13.25,-12.184 7.321,0 13.254,5.453 13.254,12.184 z"
           style="fill:none;stroke:#000000;stroke-opacity:1;stroke-width:0.747291;stroke-linecap:butt;stroke-linejoin:miter;stroke-miterlimit:4;stroke-dasharray:0.747291,1.494583;stroke-dashoffset:0"
           id="path3236" /></g><path
         d="m 135.156,14.445 c 0,-1.058 -0.933,-1.914 -2.086,-1.914 -1.148,0 -2.082,0.856 -2.082,1.914 0,1.059 0.934,1.918 2.082,1.918 1.153,0 2.086,-0.859 2.086,-1.918 z"
         style="fill:#000000;fill-opacity:1;fill-rule:nonzero;stroke:none"
         id="path3238" /><g
         id="g3240"
         transform="matrix(1,0,0,-1,0,61.75)"><path
           d="m 26.113,17.422 13.848,3.844"
           style="fill:none;stroke:#ff0000;stroke-opacity:1;stroke-width:0.8;stroke-linecap:butt;stroke-linejoin:miter;stroke-miterlimit:4;stroke-dasharray:none"
           id="path3242" /></g><path
         d="m 28.012,44.742 c 0,-1.383 -1.219,-2.508 -2.727,-2.508 -1.504,0 -2.726,1.125 -2.726,2.508 0,1.383 1.222,2.508 2.726,2.508 1.508,0 2.727,-1.125 2.727,-2.508 z"
         style="fill:#000000;fill-opacity:1;fill-rule:nonzero;stroke:none"
         id="path3244" /><g
         id="g3246"
         transform="matrix(1,0,0,-1,0,61.75)"><path
           d="m 74.379,31.453 46.34,12.86"
           style="fill:none;stroke:#000000;stroke-opacity:1;stroke-width:0.8;stroke-linecap:butt;stroke-linejoin:miter;stroke-miterlimit:4;stroke-dasharray:0.8,4.8;stroke-dashoffset:0"
           id="path3248" /></g><g
         id="g3250"
         transform="matrix(1,0,0,-1,0,61.75)"><path
           d="M 41.105,21.434 77.324,32.047"
           style="fill:none;stroke:#00ff00;stroke-opacity:1;stroke-width:0.8;stroke-linecap:butt;stroke-linejoin:miter;stroke-miterlimit:4;stroke-dasharray:none"
           id="path3252" /></g><path
         d="m 44.578,37.281 -4.492,3.324 5.574,0.379 c -1.121,-0.859 -1.555,-2.355 -1.082,-3.703 z"
         style="fill:#000000;fill-opacity:1;fill-rule:evenodd;stroke:none"
         id="path3254" /><path
         d="m 73.852,32.738 4.492,-3.324 -5.574,-0.375 c 1.121,0.856 1.554,2.352 1.082,3.699 z"
         style="fill:#000000;fill-opacity:1;fill-rule:evenodd;stroke:none"
         id="path3256" /><text
         transform="matrix(1,0,0,-1,55.278064,38.690491)"
         id="text3258"><tspan
           style="fill:#00ff00;fill-opacity:1;fill-rule:nonzero;stroke:none;font-family:Arial Bold;font-variant:normal;font-weight:bold;font-size:8.8;writing-mode:lr;-inkscape-font-specification:Arial-BoldMT"
           x="0 6.8376 10.2608 15.1536 19.5536 24.4464 26.884 32.252 34.6896 39.5824 42.5128 47.4056 52.7736 57.6664"
           y="0"
           sodipodi:role="line"
           id="tspan3260">Graze distance</tspan></text>
<g
         id="g3262"
         transform="matrix(1,0,0,-1,0,61.75)"><path
           d="m 58.848,20.742 0,-1.062 2.742,0 0,2.511 c -0.27,0.258 -0.656,0.489 -1.16,0.684 -0.508,0.195 -1.02,0.289 -1.535,0.293 -0.665,-0.004 -1.239,-0.141 -1.723,-0.414 -0.492,-0.277 -0.859,-0.672 -1.106,-1.188 -0.246,-0.511 -0.367,-1.07 -0.367,-1.679 0,-0.653 0.137,-1.235 0.41,-1.746 0.274,-0.508 0.676,-0.903 1.207,-1.176 0.407,-0.207 0.911,-0.309 1.512,-0.313 0.781,0.004 1.391,0.168 1.832,0.493 0.438,0.332 0.719,0.785 0.848,1.359 l -1.262,0.234 c -0.09,-0.304 -0.258,-0.55 -0.504,-0.73 -0.246,-0.18 -0.551,-0.27 -0.914,-0.27 -0.558,0 -1.004,0.18 -1.328,0.532 -0.332,0.355 -0.496,0.875 -0.492,1.566 -0.004,0.75 0.164,1.312 0.496,1.684 0.332,0.375 0.766,0.562 1.309,0.558 0.265,0.004 0.535,-0.051 0.8,-0.156 0.266,-0.102 0.496,-0.227 0.692,-0.379 l 0,-0.801 -1.457,0 z m 5.058,2.317 -1.211,0 0,-4.563 1.125,0 0,0.649 c 0.188,-0.305 0.36,-0.504 0.516,-0.606 0.152,-0.094 0.328,-0.144 0.523,-0.148 0.274,0.004 0.536,0.082 0.793,0.23 l -0.371,1.051 c -0.203,-0.129 -0.394,-0.192 -0.57,-0.195 -0.168,0.003 -0.313,0.05 -0.43,0.14 -0.121,0.094 -0.211,0.262 -0.277,0.504 -0.066,0.246 -0.102,0.754 -0.098,1.527 l 0,1.411 z m 3.168,-3.172 -1.097,-0.196 c 0.121,-0.441 0.332,-0.769 0.636,-0.98 0.297,-0.211 0.746,-0.316 1.34,-0.32 0.539,0.004 0.938,0.066 1.203,0.191 0.258,0.129 0.446,0.293 0.555,0.488 0.109,0.2 0.164,0.559 0.164,1.078 l -0.012,1.411 c 0,0.402 0.016,0.699 0.055,0.886 0.035,0.192 0.109,0.395 0.219,0.614 l -1.196,0 c -0.035,-0.079 -0.074,-0.196 -0.113,-0.356 -0.023,-0.07 -0.039,-0.117 -0.047,-0.144 -0.211,0.203 -0.429,0.351 -0.66,0.453 -0.238,0.097 -0.488,0.144 -0.75,0.148 -0.473,-0.004 -0.844,-0.125 -1.113,-0.379 -0.274,-0.25 -0.41,-0.574 -0.406,-0.968 -0.004,-0.254 0.058,-0.485 0.183,-0.688 0.121,-0.203 0.293,-0.355 0.52,-0.465 0.218,-0.105 0.539,-0.199 0.961,-0.281 0.562,-0.102 0.953,-0.203 1.172,-0.297 l 0,-0.121 C 68.684,19.73 68.629,19.566 68.516,19.465 68.398,19.371 68.18,19.32 67.867,19.316 c -0.219,0.004 -0.387,0.047 -0.504,0.129 -0.125,0.086 -0.218,0.235 -0.289,0.442 z m 1.614,0.98 c -0.157,0.055 -0.399,0.117 -0.735,0.188 -0.336,0.07 -0.555,0.14 -0.656,0.207 -0.16,0.113 -0.242,0.254 -0.238,0.426 -0.004,0.171 0.058,0.32 0.187,0.441 0.125,0.125 0.289,0.187 0.484,0.184 0.219,0.003 0.426,-0.071 0.622,-0.215 0.148,-0.11 0.242,-0.243 0.289,-0.403 0.027,-0.097 0.043,-0.293 0.047,-0.586 l 0,-0.242 z m 1.894,2.192 0,-0.942 1.711,-1.965 c 0.277,-0.32 0.484,-0.547 0.625,-0.679 -0.145,0.007 -0.328,0.015 -0.555,0.015 l -1.613,0.008 0,-1 3.773,0 0,0.856 -1.742,2.011 -0.617,0.664 C 72.496,22.008 72.703,22 72.789,21.996 l 1.867,0 0,1.063 -4.074,0 z m 7.527,-1.454 1.204,0.204 c -0.157,0.445 -0.403,0.781 -0.735,1.007 -0.336,0.231 -0.754,0.34 -1.25,0.344 -0.797,-0.004 -1.383,-0.258 -1.762,-0.777 -0.3,-0.41 -0.449,-0.934 -0.449,-1.57 0,-0.754 0.196,-1.348 0.59,-1.778 0.395,-0.426 0.895,-0.64 1.5,-0.644 0.676,0.004 1.211,0.23 1.606,0.675 0.39,0.454 0.578,1.137 0.566,2.059 l -3.027,0 c 0.007,0.359 0.105,0.641 0.293,0.836 0.183,0.203 0.414,0.301 0.695,0.297 0.187,0.004 0.348,-0.047 0.476,-0.153 0.129,-0.101 0.227,-0.269 0.293,-0.5 z m 0.071,-1.218 c -0.012,-0.348 -0.102,-0.614 -0.274,-0.797 -0.172,-0.18 -0.383,-0.27 -0.625,-0.274 -0.265,0.004 -0.48,0.102 -0.652,0.289 -0.172,0.196 -0.258,0.454 -0.254,0.782 l 1.805,0 z m 8.812,2.672 -1.121,0 0,-0.672 c -0.191,0.261 -0.41,0.457 -0.66,0.582 -0.254,0.129 -0.512,0.187 -0.766,0.191 -0.527,-0.004 -0.976,-0.211 -1.347,-0.633 -0.379,-0.418 -0.567,-1.007 -0.563,-1.765 -0.004,-0.774 0.18,-1.36 0.547,-1.766 0.363,-0.398 0.824,-0.601 1.379,-0.605 0.508,0.004 0.949,0.214 1.324,0.636 l 0,-2.269 1.207,0 0,6.301 z M 83.77,20.68 c 0,0.488 0.066,0.84 0.203,1.054 0.191,0.317 0.465,0.477 0.816,0.473 0.277,0.004 0.512,-0.113 0.707,-0.352 0.192,-0.234 0.289,-0.589 0.293,-1.062 -0.004,-0.52 -0.098,-0.895 -0.285,-1.129 -0.188,-0.226 -0.43,-0.344 -0.723,-0.348 -0.289,0.004 -0.531,0.118 -0.722,0.344 -0.196,0.227 -0.289,0.567 -0.289,1.02 z m 4.418,-2.805 0,-1.117 1.207,0 0,1.117 -1.207,0 z m 0,5.184 0,-4.563 1.207,0 0,4.563 -1.207,0 z m 2.015,-1.301 1.211,-0.188 c 0.051,0.239 0.152,0.418 0.313,0.539 0.156,0.121 0.378,0.184 0.664,0.18 0.308,0.004 0.543,-0.055 0.703,-0.172 0.105,-0.078 0.16,-0.183 0.16,-0.32 0,-0.09 -0.031,-0.168 -0.086,-0.231 C 93.105,21.512 92.973,21.461 92.762,21.41 91.785,21.199 91.168,21 90.91,20.82 c -0.359,-0.246 -0.539,-0.586 -0.539,-1.027 0,-0.391 0.156,-0.723 0.469,-0.996 0.312,-0.266 0.793,-0.402 1.449,-0.406 0.621,0.004 1.086,0.105 1.391,0.308 0.3,0.203 0.511,0.504 0.629,0.899 l -1.137,0.211 c -0.051,-0.176 -0.145,-0.313 -0.277,-0.407 -0.137,-0.093 -0.332,-0.14 -0.582,-0.14 -0.321,0 -0.547,0.047 -0.684,0.133 -0.094,0.066 -0.141,0.144 -0.137,0.242 -0.004,0.086 0.039,0.16 0.121,0.218 0.106,0.083 0.481,0.196 1.125,0.344 0.641,0.149 1.09,0.328 1.348,0.535 0.25,0.215 0.375,0.516 0.379,0.899 -0.004,0.422 -0.18,0.781 -0.524,1.078 -0.351,0.301 -0.867,0.445 -1.55,0.449 -0.625,-0.004 -1.118,-0.125 -1.477,-0.375 -0.363,-0.25 -0.601,-0.594 -0.711,-1.027 z m 7.414,-3.262 0,0.961 -0.824,0 0,1.84 c 0,0.375 0.008,0.594 0.023,0.652 0.016,0.063 0.051,0.114 0.106,0.153 0.055,0.043 0.121,0.062 0.207,0.058 0.109,0.004 0.273,-0.035 0.484,-0.117 l 0.106,0.937 c -0.281,0.122 -0.602,0.176 -0.957,0.18 C 96.543,23.156 96.348,23.125 96.176,23.051 96,22.98 95.871,22.887 95.789,22.77 95.707,22.656 95.652,22.496 95.621,22.297 95.594,22.156 95.578,21.875 95.582,21.449 l 0,-1.992 -0.555,0 0,-0.961 0.555,0 0,-0.906 1.211,-0.707 0,1.613 0.824,0 z m 1.754,1.391 -1.098,-0.196 c 0.122,-0.441 0.332,-0.769 0.637,-0.98 0.297,-0.211 0.746,-0.316 1.34,-0.32 0.539,0.004 0.938,0.066 1.203,0.191 0.258,0.129 0.445,0.293 0.555,0.488 0.109,0.2 0.164,0.559 0.164,1.078 l -0.012,1.411 c 0,0.402 0.016,0.699 0.055,0.886 0.035,0.192 0.109,0.395 0.219,0.614 l -1.196,0 c -0.035,-0.079 -0.074,-0.196 -0.113,-0.356 -0.023,-0.07 -0.039,-0.117 -0.047,-0.144 -0.211,0.203 -0.43,0.351 -0.66,0.453 -0.238,0.097 -0.488,0.144 -0.75,0.148 -0.473,-0.004 -0.844,-0.125 -1.113,-0.379 -0.274,-0.25 -0.41,-0.574 -0.407,-0.968 -0.003,-0.254 0.059,-0.485 0.184,-0.688 0.121,-0.203 0.293,-0.355 0.52,-0.465 0.218,-0.105 0.539,-0.199 0.961,-0.281 0.562,-0.102 0.953,-0.203 1.171,-0.297 l 0,-0.121 c -0.004,-0.231 -0.058,-0.395 -0.171,-0.496 -0.118,-0.094 -0.336,-0.145 -0.649,-0.149 -0.219,0.004 -0.387,0.047 -0.504,0.129 -0.125,0.086 -0.219,0.235 -0.289,0.442 z m 1.613,0.98 c -0.156,0.055 -0.398,0.117 -0.734,0.188 -0.336,0.07 -0.555,0.14 -0.656,0.207 -0.16,0.113 -0.242,0.254 -0.239,0.426 -0.003,0.171 0.059,0.32 0.188,0.441 0.125,0.125 0.289,0.187 0.484,0.184 0.219,0.003 0.426,-0.071 0.621,-0.215 0.149,-0.11 0.243,-0.243 0.29,-0.403 0.027,-0.097 0.042,-0.293 0.046,-0.586 l 0,-0.242 z m 6.532,2.192 -1.207,0 0,-2.329 c 0,-0.488 -0.028,-0.808 -0.079,-0.953 -0.05,-0.144 -0.132,-0.257 -0.25,-0.339 -0.117,-0.079 -0.257,-0.118 -0.417,-0.122 -0.211,0.004 -0.399,0.063 -0.563,0.172 -0.168,0.117 -0.281,0.27 -0.344,0.457 -0.062,0.192 -0.093,0.539 -0.09,1.047 l 0,2.067 -1.207,0 0,-4.563 1.121,0 0,0.668 c 0.399,-0.512 0.899,-0.769 1.504,-0.773 0.262,0.004 0.504,0.05 0.727,0.144 0.219,0.098 0.387,0.223 0.5,0.371 0.113,0.153 0.191,0.321 0.238,0.508 0.043,0.188 0.067,0.457 0.067,0.809 l 0,2.836 z m 5.207,-3.215 -1.188,0.215 c -0.043,-0.235 -0.137,-0.411 -0.277,-0.536 -0.145,-0.117 -0.328,-0.179 -0.551,-0.183 -0.301,0.004 -0.539,0.109 -0.719,0.312 -0.179,0.211 -0.269,0.559 -0.269,1.043 0,0.547 0.09,0.93 0.273,1.149 0.18,0.226 0.426,0.336 0.735,0.332 0.226,0.004 0.414,-0.063 0.562,-0.196 0.145,-0.128 0.246,-0.351 0.309,-0.671 l 1.187,0.203 c -0.129,0.547 -0.363,0.961 -0.711,1.234 -0.351,0.277 -0.82,0.41 -1.406,0.414 -0.668,-0.004 -1.199,-0.211 -1.594,-0.629 -0.398,-0.422 -0.597,-1.004 -0.594,-1.75 -0.003,-0.75 0.196,-1.336 0.594,-1.758 0.399,-0.418 0.938,-0.628 1.617,-0.632 0.555,0.004 0.997,0.125 1.325,0.359 0.328,0.242 0.562,0.605 0.707,1.094 z m 3.562,1.761 1.203,0.204 c -0.156,0.445 -0.402,0.781 -0.734,1.007 -0.336,0.231 -0.754,0.34 -1.25,0.344 -0.797,-0.004 -1.383,-0.258 -1.762,-0.777 -0.301,-0.41 -0.449,-0.934 -0.449,-1.57 0,-0.754 0.195,-1.348 0.59,-1.778 0.394,-0.426 0.894,-0.64 1.5,-0.644 0.676,0.004 1.211,0.23 1.605,0.675 0.391,0.454 0.578,1.137 0.567,2.059 l -3.028,0 c 0.008,0.359 0.106,0.641 0.293,0.836 0.184,0.203 0.414,0.301 0.696,0.297 0.187,0.004 0.347,-0.047 0.476,-0.153 0.129,-0.101 0.227,-0.269 0.293,-0.5 z m 0.07,-1.218 c -0.011,-0.348 -0.101,-0.614 -0.273,-0.797 -0.172,-0.18 -0.383,-0.27 -0.625,-0.274 -0.266,0.004 -0.48,0.102 -0.652,0.289 -0.172,0.196 -0.258,0.454 -0.254,0.782 l 1.804,0 z"
           style="fill:none;stroke:#000000;stroke-opacity:1;stroke-width:0.32;stroke-linecap:butt;stroke-linejoin:miter;stroke-miterlimit:4;stroke-dasharray:none"
           id="path3264" /></g><g
         id="g3266"
         transform="matrix(1,0,0,-1,0,61.75)"><path
           d="m 25.254,17.305 0,30.679 107.476,0"
           style="fill:none;stroke:#000000;stroke-opacity:0.541045;stroke-width:0.48;stroke-linecap:butt;stroke-linejoin:miter;stroke-miterlimit:4;stroke-dasharray:0.48,1.92;stroke-dashoffset:0"
           id="path3268" /></g><g
         id="g3270"
         transform="matrix(1,0,0,-1,0,61.75)"><path
           d="M 90.711,36.293 C 87.73,39.07 86.52,41.902 87.328,48.012"
           style="fill:none;stroke:#000000;stroke-opacity:1;stroke-width:0.4;stroke-linecap:butt;stroke-linejoin:miter;stroke-miterlimit:4;stroke-dasharray:none"
           id="path3272" /></g><text
         transform="matrix(1,0,0,-1,96.166516,16.566504)"
         id="text3274"><tspan
           style="fill:#000000;fill-opacity:1;fill-rule:nonzero;stroke:none;font-family:Arial;font-variant:normal;font-weight:normal;font-size:8;writing-mode:lr;-inkscape-font-specification:ArialMT"
           x="0"
           y="0"
           id="tspan3276">α</tspan></text>
</g><text
       xml:space="preserve"
       style="font-size:14.39999962px;font-style:normal;font-weight:normal;line-height:125%;letter-spacing:0px;word-spacing:0px;fill:#000000;fill-opacity:1;stroke:none;font-family:Sans"
       x="3.1617165"
       y="-18.629908"
       id="text4781"
       sodipodi:linespacing="125%"
       transform="scale(1,-1)"><tspan
         sodipodi:role="line"
         id="tspan4783"
         x="3.1617165"
         y="-18.629908"
         style="font-size:8px">Wróg</tspan></text>
<text
       sodipodi:linespacing="125%"
       id="text4785"
       y="-34.032013"
       x="126.18489"
       style="font-size:14.39999962px;font-style:normal;font-weight:normal;line-height:125%;letter-spacing:0px;word-spacing:0px;fill:#000000;fill-opacity:1;stroke:none;font-family:Sans"
       xml:space="preserve"
       transform="scale(1,-1)"><tspan
         style="font-size:8px"
         y="-34.032013"
         x="126.18489"
         id="tspan4787"
         sodipodi:role="line">Gracz</tspan></text>
</g></svg>