<?xml version="1.0" encoding="UTF-8" standalone="no"?>
<!-- Created with Inkscape (http://www.inkscape.org/) -->

<svg
   xmlns:dc="http://purl.org/dc/elements/1.1/"
   xmlns:cc="http://creativecommons.org/ns#"
   xmlns:rdf="http://www.w3.org/1999/02/22-rdf-syntax-ns#"
   xmlns:svg="http://www.w3.org/2000/svg"
   xmlns="http://www.w3.org/2000/svg"
   xmlns:sodipodi="http://sodipodi.sourceforge.net/DTD/sodipodi-0.dtd"
   xmlns:inkscape="http://www.inkscape.org/namespaces/inkscape"
   width="200.5311"
   height="88.65625"
   id="svg2"
   version="1.1"
   inkscape:version="0.48.5 r10040"
   sodipodi:docname="Nowy dokument 1">
  <defs
     id="defs4">
    <marker
       inkscape:stockid="Arrow2Mend"
       orient="auto"
       refY="0"
       refX="0"
       id="Arrow2Mend"
       style="overflow:visible">
      <path
         id="path3869"
         style="fill-rule:evenodd;stroke-width:0.625;stroke-linejoin:round"
         d="M 8.7185878,4.0337352 -2.2072895,0.01601326 8.7185884,-4.0017078 c -1.7454984,2.3720609 -1.7354408,5.6174519 -6e-7,8.035443 z"
         transform="scale(-0.6,-0.6)"
         inkscape:connector-curvature="0" />
    </marker>
    <marker
       inkscape:stockid="Arrow1Lend"
       orient="auto"
       refY="0"
       refX="0"
       id="Arrow1Lend"
       style="overflow:visible">
      <path
         id="path3845"
         d="M 0,0 5,-5 -12.5,0 5,5 0,0 z"
         style="fill-rule:evenodd;stroke:#000000;stroke-width:1pt"
         transform="matrix(-0.8,0,0,-0.8,-10,0)"
         inkscape:connector-curvature="0" />
    </marker>
    <marker
       inkscape:stockid="Arrow2Lend"
       orient="auto"
       refY="0"
       refX="0"
       id="Arrow2Lend"
       style="overflow:visible">
      <path
         id="path3863"
         style="fill-rule:evenodd;stroke-width:0.625;stroke-linejoin:round"
         d="M 8.7185878,4.0337352 -2.2072895,0.01601326 8.7185884,-4.0017078 c -1.7454984,2.3720609 -1.7354408,5.6174519 -6e-7,8.035443 z"
         transform="matrix(-1.1,0,0,-1.1,-1.1,0)"
         inkscape:connector-curvature="0" />
    </marker>
  </defs>
  <sodipodi:namedview
     id="base"
     pagecolor="#ffffff"
     bordercolor="#666666"
     borderopacity="1.0"
     inkscape:pageopacity="0.0"
     inkscape:pageshadow="2"
     inkscape:zoom="5.6"
     inkscape:cx="107.53165"
     inkscape:cy="50.300862"
     inkscape:document-units="px"
     inkscape:current-layer="layer1"
     showgrid="false"
     inkscape:window-width="1920"
     inkscape:window-height="1018"
     inkscape:window-x="-8"
     inkscape:window-y="-8"
     inkscape:window-maximized="1"
     fit-margin-top="0"
     fit-margin-left="0"
     fit-margin-right="0"
     fit-margin-bottom="0" />
  <metadata
     id="metadata7">
    <rdf:RDF>
      <cc:Work
         rdf:about="">
        <dc:format>image/svg+xml</dc:format>
        <dc:type
           rdf:resource="http://purl.org/dc/dcmitype/StillImage" />
        <dc:title></dc:title>
      </cc:Work>
    </rdf:RDF>
  </metadata>
  <g
     inkscape:label="Layer 1"
     inkscape:groupmode="layer"
     id="layer1"
     transform="translate(-274.12515,-208.0625)">
    <path
       style="fill:none;stroke:#000000;stroke-width:0.35983962px;stroke-linecap:butt;stroke-linejoin:miter;stroke-opacity:1"
       d="m 432.72439,269.44243 19.16988,-9.81774 0,19.67748 -8.55156,3.68728 -13.94473,13.24097 z"
       id="path3803"
       inkscape:connector-curvature="0"
       sodipodi:nodetypes="cccccc" />
    <path
       style="fill:none;stroke:#000000;stroke-width:0.35983962px;stroke-linecap:butt;stroke-linejoin:miter;stroke-opacity:1"
       d="m 432.59976,269.44742 10.60241,13.4297"
       id="path3807"
       inkscape:connector-curvature="0" />
    <path
       style="fill:none;stroke:#000000;stroke-width:0.35983962px;stroke-linecap:butt;stroke-linejoin:miter;stroke-opacity:1"
       d="m 471.10173,269.42733 -19.16988,-9.81774 0,19.67748 8.55156,3.68725 13.94473,13.24103 z"
       id="path3803-1"
       inkscape:connector-curvature="0"
       sodipodi:nodetypes="cccccc" />
    <path
       style="fill:none;stroke:#000000;stroke-width:0.35983962px;stroke-linecap:butt;stroke-linejoin:miter;stroke-opacity:1"
       d="m 471.04965,269.44838 -10.60241,13.42974"
       id="path3807-7"
       inkscape:connector-curvature="0" />
    <path
       sodipodi:type="arc"
       style="fill:none;stroke:#000000;stroke-width:4.58572388;stroke-miterlimit:4;stroke-opacity:1;stroke-dasharray:4.58572408, 9.17144816;stroke-dashoffset:0"
       id="path3002-1"
       sodipodi:cx="135.86552"
       sodipodi:cy="219.49141"
       sodipodi:rx="81.317284"
       sodipodi:ry="74.751289"
       d="m 217.18281,219.49141 c 0,41.284 -36.40699,74.75129 -81.31729,74.75129 -44.910291,0 -81.317279,-33.46729 -81.317279,-74.75129 0,-41.284 36.406988,-74.75129 81.317279,-74.75129 44.9103,0 81.31729,33.46729 81.31729,74.75129 z"
       transform="matrix(0.20370046,0,0,0.20370046,423.94588,233.92379)" />
    <path
       style="fill:none;stroke:#ff0000;stroke-width:0.94735658;stroke-linecap:butt;stroke-linejoin:miter;stroke-miterlimit:4;stroke-opacity:1;stroke-dasharray:none;stroke-dashoffset:0"
       d="m 435.02488,276.99153 17.23107,2.44802"
       id="path3824"
       inkscape:connector-curvature="0" />
    <path
       sodipodi:type="arc"
       style="fill:#000000;fill-opacity:1;stroke:none"
       id="path3002-1-7"
       sodipodi:cx="135.86552"
       sodipodi:cy="219.49141"
       sodipodi:rx="81.317284"
       sodipodi:ry="74.751289"
       d="m 217.18281,219.49141 c 0,41.284 -36.40699,74.75129 -81.31729,74.75129 -44.910291,0 -81.317279,-33.46729 -81.317279,-74.75129 0,-41.284 36.406988,-74.75129 81.317279,-74.75129 44.9103,0 81.31729,33.46729 81.31729,74.75129 z"
       transform="matrix(0.03204252,0,0,0.03204252,447.26828,271.60122)" />
    <rect
       style="fill:#ffffff;fill-opacity:1;stroke:#000000;stroke-width:0.779504;stroke-linejoin:round;stroke-miterlimit:4;stroke-opacity:1;stroke-dasharray:none;stroke-dashoffset:0"
       id="rect3004"
       width="24.016245"
       height="24.016245"
       x="277.91818"
       y="243.75125" />
    <path
       sodipodi:type="arc"
       style="fill:#000000;fill-opacity:1;stroke:none"
       id="path3794"
       sodipodi:cx="289.40869"
       sodipodi:cy="217.72365"
       sodipodi:rx="8.3337584"
       sodipodi:ry="8.3337584"
       d="m 297.74245,217.72365 c 0,4.60261 -3.73115,8.33376 -8.33376,8.33376 -4.60261,0 -8.33376,-3.73115 -8.33376,-8.33376 0,-4.60261 3.73115,-8.33376 8.33376,-8.33376 4.59031,0 8.31634,3.71197 8.3337,8.30224"
       sodipodi:start="0"
       sodipodi:end="6.2794039"
       sodipodi:open="true"
       transform="matrix(0.21978953,0,0,0.21978953,226.14003,207.99457)" />
    <path
       transform="matrix(1.3926259,0,0,1.3926259,-113.289,-47.359636)"
       sodipodi:open="true"
       sodipodi:end="6.2794039"
       sodipodi:start="0"
       d="m 297.74245,217.72365 c 0,4.60261 -3.73115,8.33376 -8.33376,8.33376 -4.60261,0 -8.33376,-3.73115 -8.33376,-8.33376 0,-4.60261 3.73115,-8.33376 8.33376,-8.33376 4.59031,0 8.31634,3.71197 8.3337,8.30224"
       sodipodi:ry="8.3337584"
       sodipodi:rx="8.3337584"
       sodipodi:cy="217.72365"
       sodipodi:cx="289.40869"
       id="path3796"
       style="fill:none;stroke:#000000;stroke-width:1.00778353;stroke-miterlimit:4;stroke-opacity:1;stroke-dasharray:1.00778358, 2.01556715;stroke-dashoffset:0"
       sodipodi:type="arc" />
    <rect
       y="243.75125"
       x="277.91818"
       height="24.016245"
       width="24.016245"
       id="rect3798"
       style="fill:#ffffff;fill-opacity:1;stroke:#000000;stroke-width:0.5;stroke-linejoin:round;stroke-miterlimit:4;stroke-opacity:1;stroke-dasharray:none;stroke-dashoffset:0" />
    <path
       style="fill:none;stroke:#ff0000;stroke-width:1;stroke-linecap:butt;stroke-linejoin:miter;stroke-miterlimit:4;stroke-opacity:1;stroke-dasharray:none;stroke-dashoffset:0;marker-end:none"
       d="m 288.4398,255.92094 13.21203,1.55424"
       id="path5404"
       inkscape:connector-curvature="0" />
    <path
       inkscape:connector-curvature="0"
       id="path3834"
       d="m 289.39327,256.54034 12.64203,-2.53365"
       style="fill:none;stroke:#ff0000;stroke-width:1;stroke-linecap:butt;stroke-linejoin:miter;stroke-miterlimit:4;stroke-opacity:1;stroke-dasharray:none;stroke-dashoffset:0" />
    <path
       transform="matrix(0.21978953,0,0,0.21978953,226.14003,207.99457)"
       sodipodi:open="true"
       sodipodi:end="6.2794039"
       sodipodi:start="0"
       d="m 297.74245,217.72365 c 0,4.60261 -3.73115,8.33376 -8.33376,8.33376 -4.60261,0 -8.33376,-3.73115 -8.33376,-8.33376 0,-4.60261 3.73115,-8.33376 8.33376,-8.33376 4.59031,0 8.31634,3.71197 8.3337,8.30224"
       sodipodi:ry="8.3337584"
       sodipodi:rx="8.3337584"
       sodipodi:cy="217.72365"
       sodipodi:cx="289.40869"
       id="path3800"
       style="fill:#000000;fill-opacity:1;stroke:none"
       sodipodi:type="arc" />
    <path
       sodipodi:nodetypes="cccccc"
       inkscape:connector-curvature="0"
       id="path3810"
       d="m 432.72439,218.19243 19.16988,-9.81774 0,19.67748 -8.55156,3.68728 -13.94473,13.24097 z"
       style="fill:none;stroke:#000000;stroke-width:0.35983962px;stroke-linecap:butt;stroke-linejoin:miter;stroke-opacity:1" />
    <path
       inkscape:connector-curvature="0"
       id="path3812"
       d="m 432.59976,218.19742 10.60241,13.4297"
       style="fill:none;stroke:#000000;stroke-width:0.35983962px;stroke-linecap:butt;stroke-linejoin:miter;stroke-opacity:1" />
    <path
       sodipodi:nodetypes="cccccc"
       inkscape:connector-curvature="0"
       id="path3814"
       d="m 471.10173,218.17733 -19.16988,-9.81774 0,19.67748 8.55156,3.68725 13.94473,13.24103 z"
       style="fill:none;stroke:#000000;stroke-width:0.35983962px;stroke-linecap:butt;stroke-linejoin:miter;stroke-opacity:1" />
    <path
       inkscape:connector-curvature="0"
       id="path3816"
       d="m 471.04965,218.19838 -10.60241,13.42974"
       style="fill:none;stroke:#000000;stroke-width:0.35983962px;stroke-linecap:butt;stroke-linejoin:miter;stroke-opacity:1" />
    <path
       transform="matrix(0.20370046,0,0,0.20370046,423.94588,182.67379)"
       d="m 217.18281,219.49141 c 0,41.284 -36.40699,74.75129 -81.31729,74.75129 -44.910291,0 -81.317279,-33.46729 -81.317279,-74.75129 0,-41.284 36.406988,-74.75129 81.317279,-74.75129 44.9103,0 81.31729,33.46729 81.31729,74.75129 z"
       sodipodi:ry="74.751289"
       sodipodi:rx="81.317284"
       sodipodi:cy="219.49141"
       sodipodi:cx="135.86552"
       id="path3818"
       style="fill:none;stroke:#000000;stroke-width:4.58572388;stroke-miterlimit:4;stroke-opacity:1;stroke-dasharray:4.58572408, 9.17144816;stroke-dashoffset:0"
       sodipodi:type="arc" />
    <path
       style="fill:#ff0000;stroke:#ff0000;stroke-width:1;stroke-linecap:butt;stroke-linejoin:miter;stroke-miterlimit:4;stroke-opacity:1;stroke-dasharray:none;stroke-dashoffset:0"
       d="m 434.91208,230.2153 17.85441,-3.11961"
       id="path3822"
       inkscape:connector-curvature="0" />
    <path
       transform="matrix(0.03204252,0,0,0.03204252,447.26828,220.35122)"
       d="m 217.18281,219.49141 c 0,41.284 -36.40699,74.75129 -81.31729,74.75129 -44.910291,0 -81.317279,-33.46729 -81.317279,-74.75129 0,-41.284 36.406988,-74.75129 81.317279,-74.75129 44.9103,0 81.31729,33.46729 81.31729,74.75129 z"
       sodipodi:ry="74.751289"
       sodipodi:rx="81.317284"
       sodipodi:cy="219.49141"
       sodipodi:cx="135.86552"
       id="path3820"
       style="fill:#000000;fill-opacity:1;stroke:none"
       sodipodi:type="arc" />
    <path
       sodipodi:type="arc"
       style="fill:none;stroke:#000000;stroke-width:0.71806794;stroke-miterlimit:4;stroke-opacity:1;stroke-dasharray:0.71806793, 1.43613586;stroke-dashoffset:0"
       id="path3802"
       sodipodi:cx="289.40869"
       sodipodi:cy="217.72365"
       sodipodi:rx="8.3337584"
       sodipodi:ry="8.3337584"
       d="m 297.74245,217.72365 c 0,4.60261 -3.73115,8.33376 -8.33376,8.33376 -4.60261,0 -8.33376,-3.73115 -8.33376,-8.33376 0,-4.60261 3.73115,-8.33376 8.33376,-8.33376 4.59031,0 8.31634,3.71197 8.3337,8.30224"
       sodipodi:start="0"
       sodipodi:end="6.2794039"
       sodipodi:open="true"
       transform="matrix(1.3926259,0,0,1.3926259,-113.289,-47.359636)" />
    <text
       xml:space="preserve"
       style="font-size:18px;font-style:normal;font-weight:normal;line-height:125%;letter-spacing:0px;word-spacing:0px;fill:#000000;fill-opacity:1;stroke:none;font-family:Sans"
       x="273.24625"
       y="237.42162"
       id="text3826"
       sodipodi:linespacing="125%"><tspan
         sodipodi:role="line"
         id="tspan3828"
         x="273.24625"
         y="237.42162"
         style="font-size:12px">Bonus</tspan></text>
    <text
       sodipodi:linespacing="125%"
       id="text3830"
       y="255.94627"
       x="435.85019"
       style="font-size:18px;font-style:normal;font-weight:normal;line-height:125%;letter-spacing:0px;word-spacing:0px;fill:#000000;fill-opacity:1;stroke:none;font-family:Sans"
       xml:space="preserve"><tspan
         style="font-size:12px"
         y="255.94627"
         x="435.85019"
         id="tspan3832"
         sodipodi:role="line">Gracz</tspan></text>
    <path
       style="fill:none;stroke:#000000;stroke-width:1;stroke-linecap:butt;stroke-linejoin:miter;stroke-miterlimit:4;stroke-opacity:1;stroke-dasharray:none;stroke-dashoffset:0;marker-end:url(#Arrow2Mend)"
       d="m 302.47163,253.8751 77.04463,-13.46164"
       id="path3836"
       inkscape:connector-curvature="0" />
    <path
       inkscape:connector-curvature="0"
       id="path4840"
       d="m 378.4083,240.48328 56.28055,-9.83363"
       style="fill:none;stroke:#000000;stroke-width:0.73049277;stroke-linecap:butt;stroke-linejoin:miter;stroke-miterlimit:4;stroke-opacity:1;stroke-dasharray:0.73049277, 4.38295662;stroke-dashoffset:0;marker-end:none" />
    <path
       inkscape:connector-curvature="0"
       id="path5028"
       d="m 301.28436,257.43284 76.90101,11.20566"
       style="fill:none;stroke:#000000;stroke-width:1;stroke-linecap:butt;stroke-linejoin:miter;stroke-miterlimit:4;stroke-opacity:1;stroke-dasharray:none;stroke-dashoffset:0;marker-end:url(#Arrow2Mend)" />
    <path
       style="fill:none;stroke:#000000;stroke-width:0.76976341;stroke-linecap:butt;stroke-linejoin:miter;stroke-miterlimit:4;stroke-opacity:1;stroke-dasharray:0.76976342, 3.07905364;stroke-dashoffset:0;marker-end:none"
       d="m 376.29933,268.40955 59.75078,8.54556"
       id="path5216"
       inkscape:connector-curvature="0" />
  </g>
</svg>
